<?xml version="1.0" standalone="no"?>
<!DOCTYPE svg PUBLIC "-//W3C//DTD SVG 20010904//EN"
 "http://www.w3.org/TR/2001/REC-SVG-20010904/DTD/svg10.dtd">
<svg version="1.0" xmlns="http://www.w3.org/2000/svg"
 width="1018.000000pt" height="1018.000000pt" viewBox="0 0 1018.000000 1018.000000"
 preserveAspectRatio="xMidYMid meet">
<metadata>
Created by potrace 1.11, written by Peter Selinger 2001-2013
</metadata>
<g transform="translate(0.000000,1018.000000) scale(0.100000,-0.100000)"
fill="#000000" stroke="none">
<path d="M4540 9841 c0 -153 -3 -293 -7 -311 l-6 -33 -298 6 c-260 5 -300 4
-314 -9 -13 -13 -15 -54 -15 -263 0 -136 -3 -411 -7 -611 l-6 -363 -304 5
c-222 4 -306 2 -313 -7 -5 -6 -12 -141 -16 -299 -7 -280 -8 -288 -29 -302 -19
-12 -109 -13 -631 -4 -1085 17 -2484 33 -2488 29 -2 -2 -7 -284 -11 -626 l-8
-623 313 -2 313 -3 -2 -306 c-2 -276 -1 -307 14 -313 9 -3 87 -6 173 -6 86 0
221 -3 299 -7 l142 -6 -6 -302 c-4 -214 -3 -304 5 -309 6 -3 148 -9 316 -13
l305 -6 -5 -401 c-2 -221 -7 -502 -10 -625 l-6 -224 -299 6 c-244 5 -301 3
-312 -8 -11 -10 -15 -102 -20 -442 -4 -235 -7 -511 -7 -612 l0 -184 -300 5
c-232 4 -304 2 -318 -8 -17 -12 -21 -161 -31 -1107 l-1 -128 -314 3 -314 3 -6
-445 c-3 -245 -8 -519 -11 -610 -3 -96 -1 -171 5 -180 8 -13 133 -17 942 -27
513 -7 934 -10 936 -8 2 2 7 142 10 311 l7 307 255 -2 c140 0 416 -4 612 -7
282 -6 361 -4 373 6 12 10 15 37 15 139 0 69 3 204 7 300 l6 174 617 -7 c509
-6 618 -5 627 6 8 9 12 110 15 305 2 160 6 294 10 298 3 4 286 3 627 -1 l621
-7 0 -302 c0 -235 3 -305 13 -313 9 -7 193 -13 557 -17 300 -3 577 -8 615 -11
l70 -5 -3 -298 c-3 -248 -1 -299 11 -309 10 -9 138 -14 458 -17 244 -3 521 -8
615 -11 l170 -6 -4 -308 -5 -308 244 -6 c679 -17 1624 -24 1636 -13 8 9 13
179 19 623 l7 611 -108 6 c-60 4 -199 7 -311 7 -112 0 -204 3 -206 8 -2 4 0
279 4 611 6 412 5 607 -2 616 -7 9 -91 14 -313 20 -166 4 -303 8 -305 9 -1 2
2 275 7 606 6 355 6 611 1 620 -8 15 -42 18 -310 22 -165 3 -303 8 -306 11 -3
3 -2 284 3 624 l8 618 307 -4 308 -3 10 26 c6 16 10 143 10 312 l0 286 305 -3
c179 -2 309 1 314 7 5 5 13 146 17 313 l7 304 313 -8 314 -7 1 148 c1 82 4
363 8 624 4 261 6 476 6 477 -1 3 -901 16 -2250 34 -534 7 -867 15 -878 21
-18 9 -19 25 -16 304 4 254 2 296 -11 304 -8 6 -131 10 -281 10 -147 0 -281 3
-299 7 l-33 6 8 612 c6 511 5 614 -6 621 -8 5 -149 11 -314 14 l-300 5 4 311
3 311 -398 6 c-220 4 -504 7 -631 7 l-233 0 0 -279z m858 -357 l392 -7 -6
-624 -7 -623 190 0 c104 0 245 -3 313 -7 l123 -6 -7 -619 c-4 -340 -5 -618 -4
-619 2 0 577 -9 1278 -19 701 -10 1405 -22 1563 -26 281 -7 289 -8 295 -28 4
-12 6 -150 4 -309 l-3 -288 -313 7 -313 7 -6 -174 c-4 -96 -7 -236 -7 -311 l0
-138 -315 0 -315 0 0 -128 c0 -71 -3 -211 -7 -312 l-6 -183 -309 5 c-170 3
-310 3 -312 -1 -2 -3 -7 -286 -11 -628 l-8 -623 274 0 c151 0 292 -3 313 -7
l39 -6 -7 -617 -6 -618 22 -6 c13 -3 155 -6 316 -6 l293 0 -6 -322 c-3 -178
-8 -451 -11 -608 -4 -240 -3 -288 10 -305 14 -19 28 -20 316 -23 l301 -3 -3
-293 c-2 -233 -6 -296 -17 -310 -13 -15 -57 -16 -575 -11 -309 3 -585 8 -615
11 l-54 6 6 294 c4 236 3 297 -8 308 -15 15 -333 26 -759 26 -144 0 -312 3
-375 7 l-113 6 3 307 4 307 -215 6 c-118 4 -319 7 -446 7 -127 0 -313 3 -412
7 l-182 6 0 307 0 308 -192 6 c-106 3 -390 8 -630 11 l-438 5 0 -212 c0 -117
-3 -258 -7 -312 l-6 -99 -629 7 -628 7 0 -312 0 -312 -628 8 -629 7 -6 -122
c-4 -68 -7 -208 -7 -312 l0 -189 -587 6 c-324 3 -603 8 -621 11 -22 3 -35 12
-40 27 -4 12 -6 149 -4 305 l4 282 312 0 313 0 6 347 c4 190 7 451 7 578 0
128 3 254 7 280 l6 47 297 -7 c270 -6 298 -6 313 10 15 14 17 44 17 243 0 125
3 400 7 611 l6 384 302 -6 c261 -6 304 -5 315 8 9 11 14 165 20 622 4 335 6
609 5 611 -1 1 -143 5 -315 9 l-312 6 7 313 7 314 -313 2 -314 3 2 313 2 312
-148 0 c-81 0 -223 3 -315 7 l-167 6 3 293 c2 245 5 296 18 307 16 16 122 15
2254 -13 753 -10 851 -10 864 4 13 12 16 100 23 603 4 323 8 599 8 612 l1 23
304 -7 c292 -7 305 -6 314 12 6 11 13 252 18 627 l7 609 236 -6 c130 -4 413
-10 629 -13z"/>
<path d="M3866 6308 c-3 -40 -8 -262 -11 -493 -3 -231 -8 -616 -12 -856 -4
-288 -3 -438 4 -442 5 -3 142 -9 304 -13 264 -6 295 -5 307 9 11 13 15 169 22
794 5 428 10 840 12 916 2 114 0 139 -12 147 -9 6 -141 10 -312 10 l-296 0 -6
-72z"/>
<path d="M5761 6346 c-8 -10 -14 -231 -21 -792 -5 -429 -10 -839 -12 -912 -1
-104 1 -136 13 -147 20 -20 596 -26 609 -6 9 16 18 426 25 1247 l5 611 -197 6
c-311 11 -409 9 -422 -7z"/>
</g>
</svg>
